# xmcd CD database file generated by Grip 3.2.0
# 
# Track frame offsets:
#       150
#       12378
#       23117
#       33262
#       50803
#       58869
#       77511
#       100352
#       112893
#       123416
#       135366
#       149356
#       163065
#       179564
#       194009
#       204291
#       214847
#       227238
#       244949
# 
# Disc length: 3480 seconds
# 
# Revision: 1
# Processed by: cddbd v1.5.1PL2 Copyright (c) Steve Scherf et al.
# Submitted via: Grip 3.2.0
# 
DISCID=130d9613
DTITLE=Various Artist - 1. velký trampský zpěvník  Tř - W
DYEAR=2005
DGENRE=Country
TTITLE0=Tři kříže
TTITLE1=Tuláckej král
TTITLE2=Tulák
TTITLE3=Tulák Venca
TTITLE4=U tří louží
TTITLE5=Ukolébavka námořníka
TTITLE6=Utah Carol
TTITLE7=V pondělí prohlížím koleje
TTITLE8=Vandrák
TTITLE9=Vdovy z Cordoby
TTITLE10=Ve strážním koši
TTITLE11=Velrybářská výprava
TTITLE12=Venezuelána
TTITLE13=Vězeňská
TTITLE14=Vlajka vzhůru letí
TTITLE15=Vlak půlnoční
TTITLE16=Volání
TTITLE17=Vyprahlá cesta
TTITLE18=Wigwam
EXTD=Vložila Agina
EXTT0=
EXTT1=
EXTT2=
EXTT3=
EXTT4=
EXTT5=
EXTT6=
EXTT7=
EXTT8=
EXTT9=
EXTT10=
EXTT11=
EXTT12=
EXTT13=
EXTT14=
EXTT15=
EXTT16=
EXTT17=
EXTT18=
PLAYORDER=
